<?xml version="1.0" encoding="UTF-8" standalone="no"?><!-- Created with Inkscape (http://www.inkscape.org/) -->

<svg xmlns:cc="http://creativecommons.org/ns#" xmlns:dc="http://purl.org/dc/elements/1.1/"
    xmlns:inkscape="http://www.inkscape.org/namespaces/inkscape"
    xmlns:rdf="http://www.w3.org/1999/02/22-rdf-syntax-ns#"
    xmlns:sodipodi="http://sodipodi.sourceforge.net/DTD/sodipodi-0.dtd" height="99.93119mm"
    id="svg6490" version="1.1" viewBox="0 0 535.9406 354.08689" width="151.25435mm"
    xmlns="http://www.w3.org/2000/svg"
    inkscape:export-filename="/home/sellmair/dev/lime-android/img/0_3_0_logo_font_black.png"
    inkscape:export-xdpi="55.607346" inkscape:export-ydpi="55.607346" inkscape:version="0.91 r13725"
    sodipodi:docname="0_3_0_logo_font_white.svg">
    <defs id="defs6492">
        <inkscape:path-effect effect="spiro" id="path-effect7085" is_visible="true" />
        <inkscape:path-effect effect="spiro" id="path-effect7081" is_visible="true" />
        <inkscape:path-effect effect="spiro" id="path-effect7077" is_visible="true" />
    </defs>
    <sodipodi:namedview bordercolor="#666666" borderopacity="1.0" fit-margin-bottom="0"
        fit-margin-left="0" fit-margin-right="0" fit-margin-top="0" id="base" pagecolor="#ffffda"
        showgrid="false" inkscape:current-layer="text3348" inkscape:cx="284.42819"
        inkscape:cy="207.32486" inkscape:document-units="px" inkscape:pageopacity="0"
        inkscape:pageshadow="2" inkscape:window-height="1017" inkscape:window-maximized="1"
        inkscape:window-width="1920" inkscape:window-x="0" inkscape:window-y="30"
        inkscape:zoom="1.4142136" />
    <metadata id="metadata6495">
        <rdf:RDF>
            <cc:Work rdf:about="">
                <dc:format>image/svg+xml</dc:format>
                <dc:type rdf:resource="http://purl.org/dc/dcmitype/StillImage" />
                <dc:title></dc:title>
            </cc:Work>
        </rdf:RDF>
    </metadata>
    <g id="layer1" transform="translate(-105.87462,-133.44533)" inkscape:groupmode="layer"
        inkscape:label="Ebene 1">
        <g id="g7087" transform="translate(96.974642,-4.0406102)" inkscape:export-xdpi="905.2179"
            inkscape:export-ydpi="905.2179">
            <text
         style="font-style:normal;font-weight:normal;font-size:40px;line-height:125%;font-family:sans-serif;letter-spacing:0px;word-spacing:0px;fill:#000000;fill-opacity:1;stroke:none;stroke-width:1px;stroke-linecap:butt;stroke-linejoin:miter;stroke-opacity:1"
         id="text3479"
         x="181.5968"
         y="293.54568"
         sodipodi:linespacing="125%"
         xml:space="preserve"><tspan
           id="tspan3481"
           x="181.5968"
           y="293.54568"
           sodipodi:role="line" /><tspan
           id="tspan3483"
           x="181.5968"
           y="343.54568"
           sodipodi:role="line" /></text>
            <g style="font-style:normal;font-weight:normal;font-size:228.04806519px;line-height:125%;font-family:sans-serif;letter-spacing:0px;word-spacing:0px;fill:#000000;fill-opacity:1;stroke:none;stroke-width:1px;stroke-linecap:butt;stroke-linejoin:miter;stroke-opacity:1"
                id="text3348" transform="matrix(2.1514278,0,0,2.1514278,-384.48481,-342.67579)">
                <path
                    style="font-style:italic;font-variant:normal;font-weight:normal;font-stretch:normal;font-family:'Champion Shipmate';-inkscape-font-specification:'Champion Shipmate Italic';fill:#ffffff;fill-opacity:1"
                    d="m 182.84824,364.9147 q 0,-4.56096 2.05243,-8.66583 2.28048,-3.87682 5.92925,-7.06949 3.64877,-3.19267 7.98168,-5.2451 4.33291,-2.05244 8.89387,-2.96463 l 23.48896,-72.74733 q 2.28048,-7.29754 4.78901,-14.13898 2.73657,-7.06949 6.15729,-12.99874 3.64877,-5.92925 8.43778,-10.26216 5.01706,-4.33292 12.08655,-6.6134 4.10486,-1.36829 6.61339,-0.91219 2.50853,0.22805 3.42072,1.36829 1.14024,1.14024 0.22805,2.96462 -0.91219,1.82439 -3.64877,3.42072 -3.19267,1.82439 -5.92925,6.6134 -2.73657,4.56096 -5.01705,9.80606 -2.05244,5.01706 -3.87682,9.80607 -1.59634,4.78901 -2.50853,7.06949 0,0 -0.68414,2.05243 -0.68415,1.82439 -1.82439,4.78901 -1.14024,2.96463 -2.50853,6.6134 -1.14024,3.42072 -2.28048,6.84144 -2.05243,6.61339 -4.78901,14.59508 -2.50853,7.98168 -5.2451,16.19141 -2.50853,7.98168 -5.01706,15.50727 -2.50853,7.29753 -4.56096,12.77069 7.75363,4.10486 15.73531,8.43778 7.98169,4.33291 15.50727,8.20973 7.75364,3.87681 14.82313,6.84144 7.06949,3.19267 12.99874,5.01706 5.01705,1.59633 10.26216,2.28048 5.24511,0.68414 9.34997,0.22805 4.33291,-0.22805 7.29754,-1.82439 2.96462,-1.36829 3.42072,-3.87682 0.4561,-2.05243 2.96462,-0.45609 2.50853,1.82438 3.87682,5.01705 1.59634,3.42073 0.68415,7.29754 -0.68415,3.87682 -6.84145,6.1573 -2.50853,0.91219 -5.92925,0.68414 -3.42072,0 -7.52558,-0.68414 -3.87682,-0.68414 -8.20973,-1.82438 -4.10487,-1.14024 -7.98168,-2.28048 -9.34998,-2.73658 -18.0158,-6.84145 -8.66583,-3.87681 -16.64751,-8.20973 -7.75363,-4.33291 -15.05117,-8.43778 -7.06949,-3.87681 -13.91093,-6.38534 -3.19268,9.57802 -10.71826,15.96336 -7.52559,6.6134 -16.19142,6.6134 -5.2451,0 -8.66582,-3.19268 -3.42072,-3.19267 -3.42072,-7.52558 z m 8.43777,-1.36829 q 2.05244,1.59634 3.87682,0.4561 1.82439,-1.14024 3.42072,-3.42072 1.59634,-2.05244 2.73658,-4.78901 1.14024,-2.50853 1.82438,-4.10487 -2.28048,-0.68414 -5.2451,0.68414 -2.73658,1.14025 -5.01706,3.19268 -2.28048,1.82438 -2.96462,4.10486 -0.68415,2.28048 1.36828,3.87682 z"
                    id="path4172" inkscape:connector-curvature="0" />
                <path
                    style="font-style:italic;font-variant:normal;font-weight:normal;font-stretch:normal;font-family:'Champion Shipmate';-inkscape-font-specification:'Champion Shipmate Italic';fill:#ffffff;fill-opacity:1"
                    d="m 277.64497,287.15031 q 1.14024,1.59633 0.91219,4.10486 0,2.28048 -0.91219,5.01706 -0.68415,2.50853 -1.59634,4.78901 -0.91219,2.28048 -1.36829,3.64877 -2.73658,7.52559 -5.92925,16.41946 -2.96462,8.66583 -5.2451,15.27922 -3.42073,9.57802 -3.42073,13.45484 0,3.64877 1.82439,3.42072 1.59634,-0.4561 4.33291,-3.87682 2.73658,-3.42072 5.24511,-7.75363 3.42072,-6.1573 7.52558,-14.13898 4.33292,-8.20973 8.89388,-17.55971 0.68414,-1.36828 1.82438,-1.36828 1.14024,-0.22805 2.05244,0.22804 1.14024,0.4561 1.82438,1.36829 0.68414,0.9122 0.22805,1.82439 -0.68415,1.36829 -2.50853,5.47315 -1.82438,3.87682 -4.33291,9.12192 -2.50853,5.24511 -5.92925,10.94631 -3.19268,5.7012 -7.06949,10.49021 -3.64877,4.78901 -7.98169,7.98168 -4.33291,3.42072 -8.89387,3.64877 -5.47315,0.4561 -8.66583,-1.59633 -3.42072,-1.82439 -4.56096,-5.24511 -1.36829,-3.42072 -0.91219,-7.98168 0.4561,-4.78901 2.28048,-10.26216 0.4561,-1.36829 1.82438,-4.78901 1.14025,-3.64877 2.96463,-7.98169 1.59634,-4.56096 3.42072,-9.34997 1.82439,-5.01705 3.42072,-9.12192 0.68415,-1.59634 1.59634,-4.10486 0.91219,-2.73658 1.59633,-5.24511 0.68415,-2.73658 1.36829,-5.24511 0.4561,-2.50852 0.4561,-3.87681 0,-1.14024 2.05243,-1.14024 1.82439,-0.22805 3.42072,-0.4561 4.56096,-0.22805 6.84144,0.91219 2.28049,1.14024 3.42073,2.96463 z"
                    id="path4182" inkscape:connector-curvature="0" />
                <path
                    style="font-style:italic;font-variant:normal;font-weight:normal;font-stretch:normal;font-family:'Champion Shipmate';-inkscape-font-specification:'Champion Shipmate Italic';fill:#0498c1;fill-opacity:1"
                    d="m 271.71572,252.25895 q 0.45609,-1.59633 3.87681,-2.28048 3.42072,-0.91219 7.29754,-0.68414 3.87682,0.22805 6.84144,1.59634 2.96463,1.36828 2.28048,3.87681 -1.14024,4.10487 -3.64877,7.98169 -2.50852,3.87681 -5.7012,6.84144 -2.96462,2.96462 -6.15729,4.56096 -2.96463,1.59633 -5.24511,0.91219 -1.82438,-0.4561 -2.05243,-3.64877 -0.22805,-3.19267 0.22805,-7.06949 0.45609,-3.87682 1.14024,-7.29754 0.91219,-3.64877 1.14024,-4.78901 z"
                    id="path4174" inkscape:connector-curvature="0" />
                <path
                    style="font-style:italic;font-variant:normal;font-weight:normal;font-stretch:normal;font-family:'Champion Shipmate';-inkscape-font-specification:'Champion Shipmate Italic';fill:#ffffff;fill-opacity:1"
                    d="m 286.20033,356.70497 q 1.59634,2.96462 -0.68414,2.96462 -2.50853,0.22805 -5.92925,-2.05243 -3.42072,-2.05243 -6.1573,-5.92925 -2.73658,-3.87682 -1.82439,-9.12192 0.9122,-4.33292 2.73658,-9.57802 1.82439,-5.24511 3.87682,-10.26216 2.05243,-5.01706 3.87682,-9.57802 1.82438,-4.78901 2.73657,-8.20973 1.36829,-4.56096 3.19267,-9.57802 1.59634,-5.24511 1.14025,-10.49021 -0.22805,-1.59634 2.96462,-2.05244 3.42072,-0.45609 6.84144,0.68415 3.64877,1.14024 5.7012,4.10486 2.28048,2.96463 0.22805,8.20973 1.82439,-2.05243 4.10487,-4.33291 2.28048,-2.28048 5.47315,-4.78901 2.73658,-2.28048 5.92925,-2.96462 3.42072,-0.68415 6.1573,0.45609 2.96462,0.9122 5.01706,3.87682 2.05243,2.73658 2.50852,7.06949 1.59634,-1.82438 5.01706,-4.10486 3.64877,-2.28049 6.6134,-4.78901 3.42072,-2.73658 7.52558,-3.19268 4.33291,-0.45609 7.52559,1.36829 3.42072,1.82439 5.01706,5.92925 1.59633,4.10487 0,10.26216 -1.14025,4.56097 -3.42073,10.49022 -2.28048,5.92924 -4.56096,12.31459 -2.28048,6.1573 -4.33291,11.8585 -2.05243,5.7012 -2.96463,9.80607 -0.91219,3.87681 0,5.2451 0.9122,1.36829 2.73658,-2.50853 4.78901,-8.89387 9.34997,-18.24384 4.78901,-9.34997 8.43778,-16.64751 0.91219,-2.28048 2.05243,-2.96463 1.36829,-0.91219 2.28048,-0.45609 0.9122,0.45609 1.36829,1.82438 0.4561,1.14024 -0.22805,2.73658 -1.82438,3.87682 -4.10486,8.89387 -2.28048,5.01706 -5.01706,10.49022 -2.73658,5.2451 -6.1573,10.71825 -3.19267,5.24511 -7.06949,9.57802 -2.96462,3.42072 -7.29753,4.78901 -4.33292,1.36829 -7.98169,0.4561 -3.64877,-0.91219 -5.7012,-4.33291 -2.05243,-3.42073 -0.45609,-9.34998 0.91219,-3.64876 3.42072,-11.17435 2.50853,-7.52559 5.2451,-15.50727 2.96463,-7.98168 5.47316,-15.05117 2.50852,-7.06949 3.42072,-9.80607 0.68414,-2.50853 -0.22805,-3.42072 -0.91219,-0.91219 -3.42072,1.14024 -1.36829,1.36829 -3.87682,3.87682 -2.28048,2.50853 -4.78901,5.7012 -2.50853,2.96463 -4.78901,6.38535 -2.28048,3.42072 -3.64877,6.38534 -2.50853,5.7012 -5.01705,11.8585 -2.50853,5.92925 -4.56097,11.4024 -2.05243,5.47316 -3.42072,10.03412 -1.36829,4.33291 -1.14024,6.61339 0,1.82439 -2.50853,2.28048 -2.50852,0.4561 -5.47315,-0.45609 -2.73658,-1.14024 -5.01706,-3.87682 -2.05243,-2.73658 -1.14024,-7.29754 0.91219,-4.56096 3.64877,-12.08654 2.73658,-7.52559 5.7012,-15.27923 3.19268,-7.98168 5.7012,-14.59507 2.73658,-6.84144 3.42073,-9.57802 0.68414,-2.50853 -0.4561,-2.73658 -0.91219,-0.45609 -2.73658,0.9122 -1.82438,1.59633 -4.33291,5.01705 -2.50853,3.42072 -5.24511,7.52559 -2.73657,4.10486 -5.47315,8.43778 -2.50853,4.10486 -4.56096,7.52558 -2.50853,5.70121 -5.01706,11.40241 -2.50853,5.7012 -4.10486,10.71826 -1.82439,4.78901 -2.28048,8.89387 -0.68415,3.87682 0.68414,6.1573 z"
                    id="path4176" inkscape:connector-curvature="0" />
                <path
                    style="font-style:italic;font-variant:normal;font-weight:normal;font-stretch:normal;font-family:'Champion Shipmate';-inkscape-font-specification:'Champion Shipmate Italic';fill:#ffffff;fill-opacity:1"
                    d="m 403.75555,309.95511 q 3.19268,-3.42072 4.78901,-7.06949 1.59634,-3.64876 1.59634,-6.38534 0.22805,-2.96463 -1.36829,-4.56096 -1.36829,-1.59634 -4.56096,-0.91219 -2.73658,0.45609 -5.7012,2.96462 -2.73658,2.28048 -5.47316,5.47315 -2.73657,3.19268 -5.01705,6.6134 -2.05244,3.19267 -3.42072,5.47315 -3.87682,7.06949 -5.92925,13.45484 -2.28048,6.15729 -2.73658,14.13898 -0.4561,6.61339 2.96462,9.34997 3.19268,2.50853 7.75364,2.50853 5.7012,0 11.63045,-4.33292 6.1573,-4.56096 11.4024,-10.71826 5.24511,-6.15729 9.34997,-12.54264 4.33292,-6.38535 6.84145,-10.26216 1.82438,-2.96463 3.19267,-3.64877 1.59634,-0.91219 2.28048,0.22805 0.91219,0.91219 0.4561,3.42072 -0.22805,2.50853 -2.28049,6.1573 -2.28048,3.87681 -5.47315,8.66582 -2.96462,4.56096 -6.61339,9.12192 -3.42072,4.56097 -7.29754,8.66583 -3.64877,3.87682 -7.29754,6.38535 -4.56096,3.19267 -11.17435,5.47315 -6.38535,2.28048 -12.7707,2.05243 -6.38534,0 -11.17435,-3.19267 -5.01706,-3.19267 -6.38535,-11.17436 -1.14024,-8.43777 0.9122,-17.78774 2.05243,-9.34997 6.61339,-17.78775 4.33291,-8.43778 10.49021,-15.05118 6.1573,-6.61339 13.45484,-9.34997 7.29753,-2.50853 13.22678,-1.36828 5.92925,1.14024 8.89388,5.01705 3.19267,3.64877 2.73658,9.57802 -0.4561,5.92925 -5.70121,12.77069 -5.7012,7.29754 -12.99874,12.3146 -7.29753,4.78901 -13.68288,5.2451 -1.59634,0 -2.50853,-0.91219 -0.68414,-0.91219 -0.91219,-2.28048 0,-1.36829 0.68414,-2.50853 0.68415,-1.36829 2.28048,-1.82438 11.17436,-2.96463 18.92799,-11.40241 z"
                    id="path4178" inkscape:connector-curvature="0" />
            </g>
        </g>
    </g>
</svg>
