<?xml version="1.0" encoding="UTF-8" standalone="no"?>
<svg
   xmlns:dc="http://purl.org/dc/elements/1.1/"
   xmlns:cc="http://creativecommons.org/ns#"
   xmlns:rdf="http://www.w3.org/1999/02/22-rdf-syntax-ns#"
   xmlns:svg="http://www.w3.org/2000/svg"
   xmlns="http://www.w3.org/2000/svg"
   xmlns:sodipodi="http://sodipodi.sourceforge.net/DTD/sodipodi-0.dtd"
   xmlns:inkscape="http://www.inkscape.org/namespaces/inkscape"
   version="1.1"
   width="24"
   height="24"
   viewBox="0 0 24 24"
   id="svg4"
   sodipodi:docname="ghost_like.svg"
   inkscape:version="0.92.1 r15371">
  <metadata
     id="metadata10">
    <rdf:RDF>
      <cc:Work
         rdf:about="">
        <dc:format>image/svg+xml</dc:format>
        <dc:type
           rdf:resource="http://purl.org/dc/dcmitype/StillImage" />
        <dc:title></dc:title>
      </cc:Work>
    </rdf:RDF>
  </metadata>
  <defs
     id="defs8">
    <inkscape:path-effect
       is_visible="true"
       id="path-effect7085"
       effect="spiro" />
    <inkscape:path-effect
       is_visible="true"
       id="path-effect7081"
       effect="spiro" />
    <inkscape:path-effect
       is_visible="true"
       id="path-effect7077"
       effect="spiro" />
    <inkscape:path-effect
       is_visible="true"
       id="path-effect7085-5"
       effect="spiro" />
    <inkscape:path-effect
       is_visible="true"
       id="path-effect7081-0"
       effect="spiro" />
    <inkscape:path-effect
       is_visible="true"
       id="path-effect7077-0"
       effect="spiro" />
  </defs>
  <sodipodi:namedview
     pagecolor="#ffffff"
     bordercolor="#666666"
     borderopacity="1"
     objecttolerance="10"
     gridtolerance="10"
     guidetolerance="10"
     inkscape:pageopacity="0"
     inkscape:pageshadow="2"
     inkscape:window-width="1920"
     inkscape:window-height="1017"
     id="namedview6"
     showgrid="false"
     inkscape:zoom="13.906433"
     inkscape:cx="-3.5381553"
     inkscape:cy="5.9768365"
     inkscape:window-x="-8"
     inkscape:window-y="-8"
     inkscape:window-maximized="1"
     inkscape:current-layer="g4517" />
  <g
     inkscape:label="Ebene 1"
     transform="matrix(0.03083941,0,0,0.03083941,1.2741299,-4.0413756)"
     id="layer1">
    <g
       inkscape:export-ydpi="905.2179"
       inkscape:export-xdpi="905.2179"
       transform="translate(96.974642,-4.0406102)"
       id="g7087">
      <g
         inkscape:export-ydpi="245.61404"
         inkscape:export-xdpi="245.61404"
         inkscape:export-filename="./0_3_0_logo_2000.png"
         id="g4246">
        <g
           transform="translate(-16.162442,-16.162441)"
           id="g4145">
          <g
             id="g4517"
             transform="translate(372.39378,-89.017919)"
             style="opacity:0.54000005">
            <path
               style="fill:#0498c1;fill-opacity:0.06542056;fill-rule:evenodd;stroke:#0498c1;stroke-width:64.8520813;stroke-linecap:butt;stroke-linejoin:miter;stroke-miterlimit:4;stroke-dasharray:none;stroke-opacity:1"
               d="m -333.24855,509.96772 c -6.63047,-268.87874 454.34176,-279.05809 455.74733,0 v 389.32011 l -75.957888,-88.30786 -75.957893,88.30786 -75.957879,-88.30786 -75.95789,88.30786 -75.95789,-88.30786 -75.95789,88.30786 z"
               id="path7040"
               inkscape:connector-curvature="0"
               inkscape:export-xdpi="905"
               inkscape:export-ydpi="905"
               sodipodi:nodetypes="cccccccccc" />
            <path
               style="fill:#408dca;fill-opacity:1;fill-rule:evenodd;stroke:#408dca;stroke-width:10.28995991;stroke-linecap:butt;stroke-linejoin:miter;stroke-miterlimit:4;stroke-dasharray:none;stroke-opacity:1"
               d="m -249.24076,577.43341 c 0.0755,-3.76257 2.00943,-7.23353 4.21444,-10.28321 3.78922,-5.24076 8.53203,-9.76789 13.82334,-13.48619 4.82655,-3.3917 10.1173,-6.12163 15.67769,-8.09172 5.35722,-1.8981 11.00594,-3.09502 16.68916,-3.03438 4.56847,0.0488 9.10148,0.90785 13.48618,2.1915 4.9415,1.44665 9.73299,3.44042 14.1605,6.06879 3.48868,2.07104 6.75092,4.53782 9.60891,7.4174 3.22012,3.24445 5.89997,6.98102 8.42887,10.78895 0.96084,1.4468 1.90761,2.91687 2.57137,4.52182 0.66377,1.60495 1.03577,3.36634 0.80017,5.08708 -0.24631,1.799 -1.19953,3.52497 -2.69724,4.55159 -1.53159,1.04984 -3.52074,1.30399 -5.34138,0.93901 -1.82064,-0.36498 -3.48645,-1.30304 -4.94184,-2.4562 -2.55793,-2.02674 -4.51112,-4.69928 -6.74308,-7.08025 -3.2926,-3.51241 -7.20333,-6.39707 -11.29469,-8.9346 -2.67511,-1.65915 -5.45372,-3.18608 -8.42886,-4.21443 -4.67988,-1.61758 -9.73406,-1.95488 -14.66623,-1.5172 -3.03794,0.26959 -6.06166,0.83062 -8.9346,1.85435 -3.69594,1.31699 -7.10061,3.38825 -10.11465,5.90021 -3.88624,3.23887 -7.11531,7.18179 -10.28321,11.1261 -0.95294,1.1865 -1.90753,2.38073 -3.02761,3.41092 -1.12008,1.03019 -2.42211,1.89811 -3.88406,2.32071 -1.77625,0.51346 -3.7441,0.32791 -5.39448,-0.50573 -1.3002,-0.65675 -2.40844,-1.71909 -3.03438,-3.0344 -0.52089,-1.09456 -0.69864,-2.32818 -0.67432,-3.54012 z"
               id="path7075"
               inkscape:connector-curvature="0"
               inkscape:original-d="m -249.24076,577.43341 c 0.24577,-2.4405 1.37907,-6.07904 4.21444,-10.28321 2.83537,-4.20417 8.82763,-9.88368 13.82334,-13.48619 4.99571,-3.60252 10.21789,-6.23281 15.67769,-8.09172 5.45981,-1.8589 11.58507,-2.9865 16.68916,-3.03438 5.10408,-0.0479 8.83402,0.83867 13.48618,2.1915 4.65217,1.35284 10.20216,3.74346 14.1605,6.06879 3.95834,2.32532 6.55599,4.38218 9.60891,7.4174 3.05291,3.03521 6.52005,7.29762 8.42887,10.78895 1.90882,3.49132 3.6258,7.04247 3.37154,9.6089 -0.25427,2.56643 -0.33726,3.42704 -2.69724,4.55159 -2.35998,1.12455 -7.29824,0.0297 -10.28322,-1.51719 -2.98497,-1.54694 -3.7659,-4.36444 -6.74308,-7.08025 -2.97718,-2.71581 -7.94405,-6.80368 -11.29469,-8.9346 -3.35064,-2.13092 -4.56146,-3.08824 -8.42886,-4.21443 -3.86741,-1.12619 -10.6931,-1.71913 -14.66623,-1.5172 -3.97312,0.20193 -5.69258,0.61046 -8.9346,1.85435 -3.24202,1.2439 -6.62361,3.09781 -10.11465,5.90021 -3.49103,2.8024 -7.36419,8.35981 -10.28321,11.1261 -2.91901,2.76629 -4.61891,5.02383 -6.91167,5.73163 -2.29275,0.7078 -3.92999,0.18272 -5.39448,-0.50573 -1.46448,-0.68844 -2.41882,-1.87141 -3.03438,-3.0344 -0.61557,-1.16298 -0.92009,-1.09961 -0.67432,-3.54012 z"
               inkscape:path-effect="#path-effect7077"
               sodipodi:nodetypes="zzzzzzzzzzzzzzzzzzzzzzz" />
            <path
               style="fill:#408dca;fill-opacity:1;fill-rule:evenodd;stroke:#408dca;stroke-width:10.28995991;stroke-linecap:butt;stroke-linejoin:miter;stroke-miterlimit:4;stroke-dasharray:none;stroke-opacity:1"
               d="m 38.421019,578.10772 c -0.07552,-3.76257 -2.009434,-7.23352 -4.214437,-10.28321 -3.789213,-5.24077 -8.532018,-9.76789 -13.823335,-13.48619 -4.82655,-3.3917 -10.117308,-6.12162 -15.6776987,-8.09171 -5.35722239,-1.89811 -11.0059381,-3.09503 -16.6891553,-3.03439 -4.568473,0.0488 -9.101484,0.90786 -13.486182,2.19151 -4.941494,1.44665 -9.732987,3.44041 -14.160497,6.06878 -3.488681,2.07104 -6.750919,4.53782 -9.608906,7.4174 -3.220122,3.24446 -5.899972,6.98102 -8.428875,10.78895 -0.960844,1.4468 -1.90761,2.91687 -2.571374,4.52183 -0.663764,1.60495 -1.035766,3.36634 -0.800165,5.08708 0.246315,1.799 1.199529,3.52496 2.697235,4.55158 1.531592,1.04984 3.52074,1.30399 5.341381,0.93901 1.820642,-0.36498 3.486447,-1.30304 4.941839,-2.4562 2.557929,-2.02674 4.51112,-4.69928 6.743087,-7.08025 3.292605,-3.51241 7.203323,-6.39707 11.294685,-8.9346 2.675112,-1.65915 5.453721,-3.18608 8.428866,-4.21443 4.679875,-1.61758 9.73406,-1.95488 14.6662238,-1.5172 3.0379447,0.26959 6.0616662,0.83062 8.9346028,1.85435 3.6959336,1.31699 7.1006039,3.38825 10.1146444,5.90021 3.88624,3.23887 7.115315,7.18179 10.283211,11.1261 0.952943,1.1865 1.907525,2.38073 3.027606,3.41092 1.120081,1.03019 2.42212,1.89811 3.884066,2.32071 1.776254,0.51345 3.744094,0.3279 5.394478,-0.50573 1.300197,-0.65675 2.408449,-1.71908 3.034387,-3.03439 0.520887,-1.09456 0.698639,-2.32819 0.674313,-3.54013 z"
               id="path7079"
               inkscape:connector-curvature="0"
               inkscape:original-d="m 38.421019,578.10772 c -0.245769,-2.4405 -1.379071,-6.07904 -4.214437,-10.28321 -2.835366,-4.20416 -8.827625,-9.88367 -13.823335,-13.48619 -4.99571,-3.60251 -10.217893,-6.23281 -15.6776987,-8.09171 -5.45980591,-1.85891 -11.5850701,-2.98651 -16.6891553,-3.03439 -5.104084,-0.0479 -8.834016,0.83867 -13.486182,2.19151 -4.652167,1.35283 -10.202156,3.74346 -14.160497,6.06878 -3.95834,2.32532 -6.555988,4.38218 -9.608906,7.4174 -3.052918,3.03522 -6.520059,7.29762 -8.428875,10.78895 -1.908816,3.49133 -3.625805,7.04248 -3.371539,9.60891 0.254266,2.56642 0.337256,3.42703 2.697235,4.55158 2.359979,1.12456 7.298244,0.0297 10.28322,-1.51719 2.984976,-1.54694 3.765908,-4.36443 6.743087,-7.08025 2.977178,-2.71581 7.944047,-6.80368 11.294685,-8.9346 3.350638,-2.13092 4.561464,-3.08823 8.428866,-4.21443 3.867401,-1.12619 10.6931,-1.71913 14.6662238,-1.5172 3.9731237,0.20193 5.6925855,0.61046 8.9346028,1.85435 3.2420173,1.2439 6.6236099,3.09781 10.1146444,5.90021 3.491034,2.8024 7.364194,8.35981 10.283211,11.1261 2.919016,2.76629 4.618917,5.02383 6.911672,5.73163 2.292754,0.7078 3.92999,0.18272 5.394478,-0.50573 1.464488,-0.68844 2.418821,-1.87141 3.034387,-3.03439 0.615566,-1.16298 0.920083,-1.09962 0.674313,-3.54013 z"
               inkscape:path-effect="#path-effect7081"
               sodipodi:nodetypes="zzzzzzzzzzzzzzzzzzzzzzz" />
            <path
               style="fill:#408dca;fill-opacity:1;fill-rule:evenodd;stroke:#408dca;stroke-width:10.28995991;stroke-linecap:butt;stroke-linejoin:miter;stroke-miterlimit:4;stroke-dasharray:none;stroke-opacity:1"
               d="m -124.3716,636.79237 c 0.98504,1.57031 1.49512,3.38615 1.93972,5.18573 0.44461,1.79958 0.84215,3.62911 1.63634,5.30405 1.70549,3.59684 5.12128,6.15982 8.82096,7.62894 2.1938,0.87114 4.56331,1.40918 6.91373,1.19202 2.06919,-0.19117 4.05569,-0.96288 5.840902,-2.02643 1.507968,-0.89838 2.88502,-2.00402 4.166084,-3.20399 1.461974,-1.36943 2.803328,-2.86408 4.058871,-4.42495 1.238135,-1.53923 2.424324,-3.17322 4.052866,-4.29128 2.096607,-1.4394 4.728343,-1.87866 7.271339,-1.90723 1.501081,-0.0169 3.039029,0.10475 4.410475,0.71521 0.892315,0.39719 1.693536,0.99666 2.328685,1.73866 0.556644,0.65029 0.989021,1.41736 1.186026,2.25038 0.304618,1.28805 0.03534,2.63722 -0.289016,3.92045 -0.345267,1.36594 -0.75434,2.71969 -1.318455,4.01073 -0.912328,2.08796 -2.219581,3.98553 -3.695267,5.7217 -1.157816,1.36219 -2.421723,2.63117 -3.730176,3.84938 -1.776732,1.65419 -3.64035,3.21915 -5.627202,4.61398 -2.013326,1.41342 -4.150585,2.64985 -6.377312,3.69527 -1.920502,0.90166 -3.910267,1.66224 -5.960105,2.20948 -2.329465,0.62189 -4.742315,0.96684 -7.152135,0.88978 -2.40212,-0.0768 -4.78725,-0.57427 -7.03293,-1.43043 -1.96217,-0.74808 -3.81157,-1.76436 -5.6025,-2.86085 -1.75811,-1.07639 -3.4667,-2.23321 -5.12569,-3.45687 -1.68743,-1.24464 -3.32797,-2.56237 -4.7987,-4.05686 -1.7515,-1.7798 -3.24827,-3.7966 -4.59374,-5.90021 -1.51406,-2.36718 -2.85016,-4.86825 -3.7087,-7.54384 -0.6585,-2.05219 -1.03162,-4.21107 -0.92717,-6.36379 0.0336,-0.69333 0.11661,-1.38443 0.25286,-2.06507 0.19601,-0.97915 0.50416,-1.94006 0.96932,-2.82367 0.43149,-0.81965 1.00853,-1.5799 1.77007,-2.10722 0.65538,-0.45381 1.42193,-0.71928 2.1915,-0.92718 1.12543,-0.30403 2.29251,-0.49706 3.45583,-0.42144 0.91355,0.0594 1.82657,0.28989 2.61296,0.75861 0.85595,0.51018 1.53105,1.28281 2.06056,2.12694 z"
               id="path7083"
               inkscape:connector-curvature="0"
               inkscape:original-d="m -124.3716,636.79237 c 1.2847,1.91015 1.4571,7.34648 3.57606,10.48978 2.11896,3.1433 6.00698,6.29765 8.82096,7.62894 2.81398,1.3313 4.72135,1.37133 6.91373,1.19202 2.19237,-0.17931 4.25692,-1.05267 5.840902,-2.02643 1.583984,-0.97376 2.797699,-1.9294 4.166084,-3.20399 1.368386,-1.27459 2.608996,-3.01149 4.058871,-4.42495 1.449874,-1.41345 2.129021,-3.15048 4.052866,-4.29128 1.923845,-1.1408 5.276059,-1.81163 7.271339,-1.90723 1.99528,-0.0956 3.347419,0.17109 4.410475,0.71521 1.063057,0.54412 1.900197,0.97185 2.328685,1.73866 0.428487,0.76681 0.982445,1.25752 1.186026,2.25038 0.203581,0.99286 0.01709,2.50742 -0.289016,3.92045 -0.306093,1.41302 -0.552136,2.33868 -1.318455,4.01073 -0.766319,1.67205 -2.420444,4.11829 -3.695267,5.7217 -1.274822,1.60341 -2.131079,2.47348 -3.730176,3.84938 -1.599098,1.3759 -3.640437,3.2427 -5.627202,4.61398 -1.986765,1.37128 -4.336992,2.7354 -6.377312,3.69527 -2.04032,0.95986 -3.773668,1.68278 -5.960105,2.20948 -2.186435,0.52669 -4.744215,0.91306 -7.152135,0.88978 -2.40793,-0.0233 -4.91413,-0.68953 -7.03293,-1.43043 -2.11879,-0.7409 -3.81174,-1.80502 -5.6025,-2.86085 -1.79077,-1.05584 -3.46864,-2.20346 -5.12569,-3.45687 -1.65706,-1.2534 -3.20991,-2.40273 -4.7987,-4.05686 -1.5888,-1.65414 -3.18926,-3.65619 -4.59374,-5.90021 -1.40447,-2.24402 -2.97603,-5.18201 -3.7087,-7.54384 -0.73266,-2.36182 -0.91097,-4.9453 -0.92717,-6.36379 -0.0162,-1.41848 0.0634,-1.24227 0.25286,-2.06507 0.18941,-0.8228 0.49862,-1.99131 0.96932,-2.82367 0.47071,-0.83236 1.08212,-1.59908 1.77007,-2.10722 0.68794,-0.50815 1.2477,-0.6753 2.1915,-0.92718 0.94381,-0.25187 2.41335,-0.56608 3.45583,-0.42144 1.04249,0.14463 1.82555,0.26917 2.61296,0.75861 0.7874,0.48943 0.77585,0.21679 2.06056,2.12694 z"
               inkscape:path-effect="#path-effect7085"
               sodipodi:nodetypes="zzzzzzzzzzzzzzzzzzzzzzzzzzzzzzzzzz" />
          </g>
        </g>
      </g>
    </g>
  </g>
</svg>
