<?xml version="1.0" encoding="UTF-8" standalone="no"?><!-- Created with Inkscape (http://www.inkscape.org/) -->

<svg xmlns:cc="http://creativecommons.org/ns#" xmlns:dc="http://purl.org/dc/elements/1.1/"
    xmlns:inkscape="http://www.inkscape.org/namespaces/inkscape"
    xmlns:rdf="http://www.w3.org/1999/02/22-rdf-syntax-ns#"
    xmlns:sodipodi="http://sodipodi.sourceforge.net/DTD/sodipodi-0.dtd" height="193.41656mm"
    id="svg6490" version="1.1" viewBox="0 0 512.73957 685.33428" width="144.7065mm"
    xmlns="http://www.w3.org/2000/svg"
    inkscape:export-filename="/home/sellmair/dev/lime-android/img/ghost_like.png"
    inkscape:export-xdpi="26.264555" inkscape:export-ydpi="26.264555" inkscape:version="0.91 r13725"
    sodipodi:docname="ghost_like_white.svg">
    <defs id="defs6492">
        <inkscape:path-effect effect="spiro" id="path-effect7085" is_visible="true" />
        <inkscape:path-effect effect="spiro" id="path-effect7081" is_visible="true" />
        <inkscape:path-effect effect="spiro" id="path-effect7077" is_visible="true" />
    </defs>
    <sodipodi:namedview bordercolor="#666666" borderopacity="1.0" fit-margin-bottom="0"
        fit-margin-left="0" fit-margin-right="0" fit-margin-top="0" id="base" pagecolor="#535353"
        showgrid="false" inkscape:current-layer="g4145" inkscape:cx="-87.536287"
        inkscape:cy="407.35575" inkscape:document-units="px" inkscape:pageopacity="0"
        inkscape:pageshadow="2" inkscape:window-height="1017" inkscape:window-maximized="1"
        inkscape:window-width="1920" inkscape:window-x="0" inkscape:window-y="30"
        inkscape:zoom="0.49497475" />
    <metadata id="metadata6495">
        <rdf:RDF>
            <cc:Work rdf:about="">
                <dc:format>image/svg+xml</dc:format>
                <dc:type rdf:resource="http://purl.org/dc/dcmitype/StillImage" />
                <dc:title></dc:title>
            </cc:Work>
        </rdf:RDF>
    </metadata>
    <g id="layer1" transform="translate(-106.75388,-183.79698)" inkscape:groupmode="layer"
        inkscape:label="Ebene 1">
        <g id="g7087" transform="translate(96.974642,-4.0406102)" inkscape:export-xdpi="905.2179"
            inkscape:export-ydpi="905.2179">
            <g id="g4246" inkscape:export-filename="./0_3_0_logo_2000.png"
                inkscape:export-xdpi="245.61404" inkscape:export-ydpi="245.61404">
                <g id="g4145" transform="translate(-16.162442,-16.162441)">
                    <path
                        style="fill:#ffffff;fill-opacity:0.15981738;fill-rule:evenodd;stroke:#ffffff;stroke-width:29.89999962;stroke-linecap:butt;stroke-linejoin:miter;stroke-miterlimit:4;stroke-dasharray:none;stroke-opacity:1"
                        d="m 40.964989,436.62692 c -7.023562,-284.81919 481.277371,-295.60202 482.766261,0 l 0,412.40092 -80.46104,-93.54318 -80.46105,93.54318 -80.46104,-93.54318 -80.46104,93.54318 -80.46105,-93.54318 -80.461041,93.54318 z"
                        id="path7040" inkscape:connector-curvature="0" inkscape:export-xdpi="905"
                        inkscape:export-ydpi="905" sodipodi:nodetypes="cccccccccc" />
                    <path
                        style="fill:#ffffff;fill-opacity:1;fill-rule:evenodd;stroke:#ffffff;stroke-width:10.89999962;stroke-linecap:butt;stroke-linejoin:miter;stroke-miterlimit:4;stroke-dasharray:none;stroke-opacity:1"
                        d="m 136.42857,479.8622 c 0.08,-3.98563 2.12856,-7.66236 4.46429,-10.89285 4.01386,-5.55146 9.03784,-10.34698 14.64285,-14.28572 5.11269,-3.59278 10.71711,-6.48454 16.60715,-8.57143 5.67482,-2.01063 11.65842,-3.27852 17.67857,-3.21428 4.83932,0.0516 9.64107,0.96168 14.28571,2.32143 5.23445,1.53242 10.31001,3.64438 15,6.42857 3.69551,2.19382 7.15115,4.80684 10.17857,7.85714 3.41103,3.4368 6.24975,7.39489 8.92858,11.42857 1.01781,1.53258 2.0207,3.0898 2.72382,4.7899 0.70311,1.7001 1.09717,3.56591 0.8476,5.38867 -0.26092,1.90566 -1.27064,3.73395 -2.85714,4.82143 -1.62239,1.11209 -3.72947,1.3813 -5.65805,0.99468 -1.92857,-0.38662 -3.69313,-1.38029 -5.23481,-2.60182 -2.70957,-2.1469 -4.77856,-4.97788 -7.14285,-7.5 -3.48781,-3.72065 -7.63037,-6.77633 -11.96429,-9.46429 -2.83371,-1.75751 -5.77704,-3.37497 -8.92857,-4.46428 -4.95732,-1.71348 -10.31114,-2.07078 -15.53571,-1.60715 -3.21805,0.28557 -6.42103,0.87987 -9.46429,1.96429 -3.91505,1.39507 -7.52156,3.58912 -10.71429,6.25 -4.11664,3.43089 -7.53715,7.60756 -10.89285,11.78571 -1.00944,1.25684 -2.02061,2.52187 -3.2071,3.61313 -1.18648,1.09127 -2.56571,2.01065 -4.11433,2.4583 -1.88156,0.5439 -3.96606,0.34735 -5.71429,-0.53571 -1.37728,-0.69569 -2.55123,-1.821 -3.21428,-3.21429 -0.55177,-1.15945 -0.74006,-2.46621 -0.71429,-3.75 z"
                        id="path7075" transform="translate(-6.475402,28.230113)"
                        inkscape:connector-curvature="0"
                        inkscape:original-d="m 136.42857,479.8622 c 0.26034,-2.58519 1.46083,-6.43944 4.46429,-10.89285 3.00346,-4.45341 9.35097,-10.46963 14.64285,-14.28572 5.29188,-3.81609 10.82366,-6.60232 16.60715,-8.57143 5.78349,-1.96911 12.27189,-3.16356 17.67857,-3.21428 5.40668,-0.0507 9.35774,0.88839 14.28571,2.32143 4.92797,1.43304 10.80699,3.96539 15,6.42857 4.19301,2.46318 6.94466,4.64198 10.17857,7.85714 3.23391,3.21516 6.9066,7.73026 8.92858,11.42857 2.02198,3.69831 3.84076,7.45999 3.57142,10.17857 -0.26934,2.71858 -0.35725,3.63021 -2.85714,4.82143 -2.49989,1.19122 -7.73092,0.0315 -10.89286,-1.60714 -3.16194,-1.63865 -3.98917,-4.62318 -7.14285,-7.5 -3.15368,-2.87682 -8.41501,-7.20704 -11.96429,-9.46429 -3.54928,-2.25725 -4.83189,-3.27132 -8.92857,-4.46428 -4.09668,-1.19296 -11.32704,-1.82105 -15.53571,-1.60715 -4.20867,0.2139 -6.03007,0.64665 -9.46429,1.96429 -3.43422,1.31764 -7.01629,3.28146 -10.71429,6.25 -3.698,2.96854 -7.80078,8.85542 -10.89285,11.78571 -3.09207,2.93029 -4.89275,5.32167 -7.32143,6.07143 -2.42868,0.74976 -4.16298,0.19355 -5.71429,-0.53571 -1.55131,-0.72926 -2.56222,-1.98236 -3.21428,-3.21429 -0.65206,-1.23193 -0.97463,-1.16481 -0.71429,-3.75 z"
                        inkscape:path-effect="#path-effect7077"
                        sodipodi:nodetypes="zzzzzzzzzzzzzzzzzzzzzzz" />
                    <path
                        style="fill:#ffffff;fill-opacity:1;fill-rule:evenodd;stroke:#ffffff;stroke-width:10.89999962;stroke-linecap:butt;stroke-linejoin:miter;stroke-miterlimit:4;stroke-dasharray:none;stroke-opacity:1"
                        d="m 441.14435,480.57649 c -0.08,-3.98563 -2.12856,-7.66236 -4.46429,-10.89285 -4.01386,-5.55146 -9.03784,-10.34698 -14.64285,-14.28572 -5.11269,-3.59278 -10.71711,-6.48454 -16.60715,-8.57143 -5.67482,-2.01063 -11.65842,-3.27852 -17.67857,-3.21428 -4.83932,0.0516 -9.64107,0.96168 -14.28571,2.32143 -5.23445,1.53242 -10.31001,3.64438 -15,6.42857 -3.69551,2.19382 -7.15115,4.80684 -10.17857,7.85714 -3.41103,3.4368 -6.24975,7.39489 -8.92858,11.42857 -1.01781,1.53258 -2.0207,3.0898 -2.72382,4.7899 -0.70311,1.7001 -1.09717,3.56591 -0.8476,5.38867 0.26092,1.90566 1.27064,3.73395 2.85714,4.82143 1.62239,1.11209 3.72947,1.3813 5.65805,0.99468 1.92857,-0.38662 3.69313,-1.38029 5.23481,-2.60182 2.70957,-2.1469 4.77856,-4.97788 7.14285,-7.5 3.48781,-3.72065 7.63037,-6.77633 11.96429,-9.46429 2.83371,-1.75751 5.77704,-3.37497 8.92857,-4.46428 4.95732,-1.71348 10.31114,-2.07078 15.53571,-1.60715 3.21805,0.28557 6.42103,0.87987 9.46429,1.96429 3.91505,1.39507 7.52156,3.58912 10.71429,6.25 4.11664,3.43089 7.53715,7.60756 10.89285,11.78571 1.00944,1.25684 2.02061,2.52187 3.2071,3.61313 1.18648,1.09127 2.56571,2.01065 4.11433,2.4583 1.88156,0.5439 3.96606,0.34735 5.71429,-0.53571 1.37728,-0.69569 2.55123,-1.821 3.21428,-3.21429 0.55177,-1.15945 0.74006,-2.46621 0.71429,-3.75 z"
                        id="path7079" transform="translate(-6.475402,28.230113)"
                        inkscape:connector-curvature="0"
                        inkscape:original-d="m 441.14435,480.57649 c -0.26034,-2.58519 -1.46083,-6.43944 -4.46429,-10.89285 -3.00346,-4.45341 -9.35097,-10.46963 -14.64285,-14.28572 -5.29188,-3.81609 -10.82366,-6.60232 -16.60715,-8.57143 -5.78349,-1.96911 -12.27189,-3.16356 -17.67857,-3.21428 -5.40668,-0.0507 -9.35774,0.88839 -14.28571,2.32143 -4.92797,1.43304 -10.80699,3.96539 -15,6.42857 -4.19301,2.46318 -6.94466,4.64198 -10.17857,7.85714 -3.23391,3.21516 -6.9066,7.73026 -8.92858,11.42857 -2.02198,3.69831 -3.84076,7.45999 -3.57142,10.17857 0.26934,2.71858 0.35725,3.63021 2.85714,4.82143 2.49989,1.19122 7.73092,0.0315 10.89286,-1.60714 3.16194,-1.63865 3.98917,-4.62318 7.14285,-7.5 3.15368,-2.87682 8.41501,-7.20704 11.96429,-9.46429 3.54928,-2.25725 4.83189,-3.27132 8.92857,-4.46428 4.09668,-1.19296 11.32704,-1.82105 15.53571,-1.60715 4.20867,0.2139 6.03007,0.64665 9.46429,1.96429 3.43422,1.31764 7.01629,3.28146 10.71429,6.25 3.698,2.96854 7.80078,8.85542 10.89285,11.78571 3.09207,2.93029 4.89275,5.32167 7.32143,6.07143 2.42868,0.74976 4.16298,0.19355 5.71429,-0.53571 1.55131,-0.72926 2.56222,-1.98236 3.21428,-3.21429 0.65206,-1.23193 0.97463,-1.16481 0.71429,-3.75 z"
                        inkscape:path-effect="#path-effect7081"
                        sodipodi:nodetypes="zzzzzzzzzzzzzzzzzzzzzzz" />
                    <path
                        style="fill:#ffffff;fill-opacity:1;fill-rule:evenodd;stroke:#ffffff;stroke-width:10.89999962;stroke-linecap:butt;stroke-linejoin:miter;stroke-miterlimit:4;stroke-dasharray:none;stroke-opacity:1"
                        d="m 268.70058,542.74025 c 1.04343,1.66341 1.58375,3.5869 2.05472,5.49317 0.47097,1.90627 0.89207,3.84426 1.73335,5.6185 1.8066,3.81008 5.42489,6.525 9.34391,8.08122 2.32386,0.92279 4.83384,1.49272 7.32361,1.26269 2.19186,-0.20251 4.29614,-1.01997 6.18718,-2.14657 1.59737,-0.95164 3.05606,-2.12283 4.41307,-3.39394 1.54865,-1.45061 2.96952,-3.03387 4.2995,-4.68728 1.31154,-1.63048 2.56805,-3.36135 4.29314,-4.54569 2.2209,-1.52474 5.00866,-1.99003 7.70242,-2.0203 1.59007,-0.0179 3.2192,0.11096 4.67195,0.75761 0.94522,0.42074 1.79394,1.05574 2.46674,1.84174 0.58964,0.68884 1.04766,1.50139 1.25634,2.38379 0.32268,1.36442 0.0374,2.79357 -0.30615,4.15287 -0.36574,1.44692 -0.79906,2.88093 -1.39662,4.24851 -0.96642,2.21174 -2.35117,4.22182 -3.91434,6.06091 -1.22646,1.44294 -2.5653,2.78716 -3.95132,4.07759 -1.88207,1.75226 -3.85617,3.41 -5.96081,4.88752 -2.13269,1.49721 -4.39665,2.80694 -6.75539,3.91434 -2.03436,0.95511 -4.14209,1.76078 -6.31345,2.34047 -2.46757,0.65876 -5.02346,1.02416 -7.57615,0.94253 -2.54453,-0.0814 -5.07106,-0.60831 -7.44987,-1.51523 -2.0785,-0.79243 -4.03754,-1.86897 -5.93465,-3.03046 -1.86234,-1.14021 -3.67223,-2.36559 -5.42957,-3.6618 -1.78747,-1.31843 -3.52527,-2.71428 -5.08319,-4.29738 -1.85534,-1.88532 -3.44083,-4.02168 -4.86607,-6.25 -1.60382,-2.50751 -3.01913,-5.15686 -3.92857,-7.99107 -0.69754,-2.17386 -1.09278,-4.46072 -0.98214,-6.74107 0.0356,-0.73443 0.12352,-1.46651 0.26785,-2.1875 0.20763,-1.03719 0.53405,-2.05507 1.02679,-2.99107 0.45707,-0.86824 1.06832,-1.67357 1.875,-2.23215 0.69423,-0.48071 1.50623,-0.76192 2.32143,-0.98214 1.19215,-0.32206 2.42842,-0.52653 3.66071,-0.44643 0.96771,0.0629 1.93486,0.30707 2.76786,0.80358 0.9067,0.54043 1.62182,1.35886 2.18272,2.25304 z"
                        id="path7083" transform="translate(-6.475402,28.230113)"
                        inkscape:connector-curvature="0"
                        inkscape:original-d="m 268.70058,542.74025 c 1.36087,2.02339 1.54349,7.78202 3.78807,11.11167 2.24458,3.32965 6.3631,6.671 9.34391,8.08122 2.98081,1.41022 5.00126,1.45263 7.32361,1.26269 2.32235,-0.18994 4.50929,-1.11508 6.18718,-2.14657 1.67789,-1.03149 2.96356,-2.04379 4.41307,-3.39394 1.44951,-1.35015 2.76367,-3.19003 4.2995,-4.68728 1.53583,-1.49725 2.25524,-3.33726 4.29314,-4.54569 2.0379,-1.20843 5.58885,-1.91903 7.70242,-2.0203 2.11357,-0.10127 3.54587,0.18123 4.67195,0.75761 1.12608,0.57638 2.01285,1.02947 2.46674,1.84174 0.45389,0.81227 1.04069,1.33207 1.25634,2.38379 0.21565,1.05172 0.0181,2.65607 -0.30615,4.15287 -0.32424,1.4968 -0.58487,2.47733 -1.39662,4.24851 -0.81175,1.77118 -2.56394,4.36244 -3.91434,6.06091 -1.3504,1.69847 -2.25742,2.62012 -3.95132,4.07759 -1.6939,1.45747 -3.85626,3.43494 -5.96081,4.88752 -2.10455,1.45258 -4.59411,2.89757 -6.75539,3.91434 -2.16128,1.01677 -3.99739,1.78255 -6.31345,2.34047 -2.31606,0.55792 -5.02547,0.96719 -7.57615,0.94253 -2.55068,-0.0247 -5.20546,-0.73041 -7.44987,-1.51523 -2.24441,-0.78482 -4.03772,-1.91203 -5.93465,-3.03046 -1.89693,-1.11843 -3.67428,-2.33409 -5.42957,-3.6618 -1.75529,-1.32771 -3.4002,-2.54518 -5.08319,-4.29738 -1.68299,-1.7522 -3.37833,-3.87294 -4.86607,-6.25 -1.48774,-2.37706 -3.15247,-5.48922 -3.92857,-7.99107 -0.7761,-2.50185 -0.96498,-5.23849 -0.98214,-6.74107 -0.0172,-1.50258 0.0672,-1.31592 0.26785,-2.1875 0.20064,-0.87158 0.52818,-2.10936 1.02679,-2.99107 0.49861,-0.88171 1.14627,-1.69388 1.875,-2.23215 0.72873,-0.53827 1.32167,-0.71533 2.32143,-0.98214 0.99976,-0.26681 2.55642,-0.59964 3.66071,-0.44643 1.10429,0.15321 1.93377,0.28513 2.76786,0.80358 0.83409,0.51845 0.82185,0.22965 2.18272,2.25304 z"
                        inkscape:path-effect="#path-effect7085"
                        sodipodi:nodetypes="zzzzzzzzzzzzzzzzzzzzzzzzzzzzzzzzzz" />
                </g>
            </g>
        </g>
    </g>
</svg>
