<?xml version="1.0" encoding="UTF-8" standalone="no"?>
<!-- Created with Inkscape (http://www.inkscape.org/) -->

<svg
   xmlns:dc="http://purl.org/dc/elements/1.1/"
   xmlns:cc="http://creativecommons.org/ns#"
   xmlns:rdf="http://www.w3.org/1999/02/22-rdf-syntax-ns#"
   xmlns:svg="http://www.w3.org/2000/svg"
   xmlns="http://www.w3.org/2000/svg"
   xmlns:sodipodi="http://sodipodi.sourceforge.net/DTD/sodipodi-0.dtd"
   xmlns:inkscape="http://www.inkscape.org/namespaces/inkscape"
   height="186.06258mm"
   id="svg6490"
   version="1.1"
   viewBox="0 0 498.64041 659.27684"
   width="140.7274mm"
   inkscape:export-filename="C:\dev\LMAndroid\img\ghosti.png"
   inkscape:export-xdpi="905"
   inkscape:export-ydpi="905"
   inkscape:version="0.91 r13725"
   sodipodi:docname="ghost.svg">
  <defs
     id="defs6492">
    <inkscape:path-effect
       effect="spiro"
       id="path-effect7085"
       is_visible="true" />
    <inkscape:path-effect
       effect="spiro"
       id="path-effect7081"
       is_visible="true" />
    <inkscape:path-effect
       effect="spiro"
       id="path-effect7077"
       is_visible="true" />
  </defs>
  <sodipodi:namedview
     bordercolor="#666666"
     borderopacity="1.0"
     id="base"
     pagecolor="#ffffff"
     showgrid="false"
     inkscape:current-layer="g4246"
     inkscape:cx="483.18882"
     inkscape:cy="-32.853694"
     inkscape:document-units="px"
     inkscape:pageopacity="0"
     inkscape:pageshadow="2"
     inkscape:window-height="1017"
     inkscape:window-maximized="1"
     inkscape:window-width="1920"
     inkscape:window-x="0"
     inkscape:window-y="30"
     inkscape:zoom="0.175"
     fit-margin-top="0"
     fit-margin-left="0"
     fit-margin-right="0"
     fit-margin-bottom="0" />
  <metadata
     id="metadata6495">
    <rdf:RDF>
      <cc:Work
         rdf:about="">
        <dc:format>image/svg+xml</dc:format>
        <dc:type
           rdf:resource="http://purl.org/dc/dcmitype/StillImage" />
        <dc:title></dc:title>
      </cc:Work>
    </rdf:RDF>
  </metadata>
  <g
     id="layer1"
     inkscape:groupmode="layer"
     inkscape:label="Ebene 1"
     transform="translate(-1494.2512,-232.72379)">
    <g
       id="g7087"
       transform="translate(96.974642,-4.0406102)"
       inkscape:export-xdpi="905.2179"
       inkscape:export-ydpi="905.2179">
      <g
         id="g4246"
         inkscape:export-filename="./0_3_0_logo_2000.png"
         inkscape:export-xdpi="245.61404"
         inkscape:export-ydpi="245.61404">
        <g
           id="g4145">
          <path
             sodipodi:nodetypes="cccccccccc"
             inkscape:export-ydpi="905"
             inkscape:export-xdpi="905"
             inkscape:connector-curvature="0"
             id="path7040"
             d="m 1405.2507,462.34121 c -7.0236,-284.81919 481.2774,-295.60202 482.7663,0 l 0,412.40092 -80.4611,-93.54318 -80.461,93.54318 -80.4611,-93.54318 -80.461,93.54318 -80.4611,-93.54318 -80.461,93.54318 z"
             style="fill:#000000;fill-opacity:0;fill-rule:evenodd;stroke:#0498c1;stroke-width:15.80000019;stroke-linecap:butt;stroke-linejoin:miter;stroke-miterlimit:4;stroke-dasharray:none;stroke-opacity:1" />
          <path
             sodipodi:nodetypes="zzzzzzzzzzzzzzzzzzzzzzz"
             inkscape:path-effect="#path-effect7077"
             inkscape:original-d="m 1494.2389,533.8066 c 0.2603,-2.58519 1.4608,-6.43944 4.4643,-10.89285 3.0034,-4.45341 9.3509,-10.46963 14.6428,-14.28572 5.2919,-3.81609 10.8237,-6.60232 16.6072,-8.57143 5.7835,-1.96911 12.2719,-3.16356 17.6785,-3.21428 5.4067,-0.0507 9.3578,0.88839 14.2858,2.32143 4.9279,1.43304 10.8069,3.96539 15,6.42857 4.193,2.46318 6.9446,4.64198 10.1785,7.85714 3.2339,3.21516 6.9066,7.73026 8.9286,11.42857 2.022,3.69831 3.8408,7.45999 3.5714,10.17857 -0.2693,2.71858 -0.3572,3.63021 -2.8571,4.82143 -2.4999,1.19122 -7.7309,0.0315 -10.8929,-1.60714 -3.1619,-1.63865 -3.9891,-4.62318 -7.1428,-7.5 -3.1537,-2.87682 -8.415,-7.20704 -11.9643,-9.46429 -3.5493,-2.25725 -4.8319,-3.27132 -8.9286,-4.46428 -4.0967,-1.19296 -11.327,-1.82105 -15.5357,-1.60715 -4.2087,0.2139 -6.0301,0.64665 -9.4643,1.96429 -3.4342,1.31764 -7.0163,3.28146 -10.7143,6.25 -3.698,2.96854 -7.8008,8.85542 -10.8928,11.78571 -3.0921,2.93029 -4.8928,5.32167 -7.3215,6.07143 -2.4286,0.74976 -4.1629,0.19355 -5.7142,-0.53571 -1.5514,-0.72926 -2.5623,-1.98236 -3.2143,-3.21429 -0.6521,-1.23193 -0.9747,-1.16481 -0.7143,-3.75 z"
             inkscape:connector-curvature="0"
             id="path7075"
             d="m 1494.2389,533.8066 c 0.08,-3.98563 2.1286,-7.66236 4.4643,-10.89285 4.0139,-5.55145 9.0378,-10.34698 14.6428,-14.28572 5.1127,-3.59279 10.7171,-6.48455 16.6072,-8.57143 5.6748,-2.01062 11.6584,-3.2785 17.6785,-3.21428 4.8393,0.0516 9.6411,0.96168 14.2858,2.32143 5.2345,1.53241 10.31,3.64436 15,6.42857 3.6955,2.19382 7.1511,4.80685 10.1785,7.85714 3.411,3.43681 6.2498,7.39488 8.9286,11.42857 1.0178,1.53258 2.0207,3.0898 2.7238,4.7899 0.7031,1.70011 1.0972,3.56591 0.8476,5.38867 -0.2609,1.90565 -1.2706,3.73394 -2.8571,4.82143 -1.6224,1.1121 -3.7295,1.38133 -5.6581,0.9947 -1.9286,-0.38662 -3.6931,-1.3803 -5.2348,-2.60184 -2.7096,-2.1469 -4.7785,-4.97788 -7.1428,-7.5 -3.4878,-3.72066 -7.6304,-6.77633 -11.9643,-9.46429 -2.8337,-1.75751 -5.7771,-3.37497 -8.9286,-4.46428 -4.9573,-1.71348 -10.3111,-2.07078 -15.5357,-1.60715 -3.2181,0.28557 -6.421,0.87987 -9.4643,1.96429 -3.915,1.39507 -7.5216,3.58911 -10.7143,6.25 -4.1166,3.43089 -7.5371,7.60757 -10.8928,11.78571 -1.0094,1.25685 -2.0206,2.52188 -3.2071,3.61315 -1.1865,1.09126 -2.5658,2.01064 -4.1144,2.45828 -1.8815,0.54387 -3.966,0.34733 -5.7142,-0.53571 -1.3773,-0.69568 -2.5512,-1.821 -3.2143,-3.21429 -0.5518,-1.15945 -0.7401,-2.46621 -0.7143,-3.75 z"
             style="fill:#408dca;fill-opacity:1;fill-rule:evenodd;stroke:none;stroke-width:1px;stroke-linecap:butt;stroke-linejoin:miter;stroke-opacity:1" />
          <path
             sodipodi:nodetypes="zzzzzzzzzzzzzzzzzzzzzzz"
             inkscape:path-effect="#path-effect7081"
             inkscape:original-d="m 1798.9547,534.52089 c -0.2604,-2.58519 -1.4609,-6.43944 -4.4643,-10.89285 -3.0035,-4.45341 -9.351,-10.46963 -14.6429,-14.28572 -5.2919,-3.81609 -10.8236,-6.60232 -16.6071,-8.57143 -5.7835,-1.96911 -12.2719,-3.16356 -17.6786,-3.21428 -5.4067,-0.0507 -9.3577,0.88839 -14.2857,2.32143 -4.928,1.43304 -10.807,3.96539 -15,6.42857 -4.193,2.46318 -6.9447,4.64198 -10.1786,7.85714 -3.2339,3.21516 -6.9066,7.73026 -8.9286,11.42857 -2.0219,3.69831 -3.8407,7.45999 -3.5714,10.17857 0.2694,2.71858 0.3573,3.63021 2.8572,4.82143 2.4999,1.19122 7.7309,0.0315 10.8928,-1.60714 3.162,-1.63865 3.9892,-4.62318 7.1429,-7.5 3.1537,-2.87682 8.415,-7.20704 11.9643,-9.46429 3.5492,-2.25725 4.8319,-3.27132 8.9285,-4.46428 4.0967,-1.19296 11.3271,-1.82105 15.5357,-1.60715 4.2087,0.2139 6.0301,0.64665 9.4643,1.96429 3.4343,1.31764 7.0163,3.28146 10.7143,6.25 3.698,2.96854 7.8008,8.85542 10.8929,11.78571 3.092,2.93029 4.8927,5.32167 7.3214,6.07143 2.4287,0.74976 4.163,0.19355 5.7143,-0.53571 1.5513,-0.72926 2.5622,-1.98236 3.2143,-3.21429 0.652,-1.23193 0.9746,-1.16481 0.7143,-3.75 z"
             inkscape:connector-curvature="0"
             id="path7079"
             d="m 1798.9547,534.52089 c -0.08,-3.98563 -2.1286,-7.66237 -4.4643,-10.89285 -4.0139,-5.55147 -9.0379,-10.34698 -14.6429,-14.28572 -5.1127,-3.59277 -10.7171,-6.48454 -16.6071,-8.57143 -5.6748,-2.01064 -11.6584,-3.27852 -17.6786,-3.21428 -4.8393,0.0516 -9.6411,0.96168 -14.2857,2.32143 -5.2345,1.53242 -10.31,3.64438 -15,6.42857 -3.6955,2.19382 -7.1512,4.80684 -10.1786,7.85714 -3.411,3.4368 -6.2498,7.39489 -8.9286,11.42857 -1.0178,1.53258 -2.0207,3.0898 -2.7238,4.7899 -0.7031,1.7001 -1.0972,3.56592 -0.8476,5.38867 0.2609,1.90566 1.2707,3.73396 2.8572,4.82143 1.6224,1.11206 3.7294,1.38126 5.658,0.99465 1.9286,-0.38662 3.6931,-1.38028 5.2348,-2.60179 2.7096,-2.14689 4.7786,-4.97787 7.1429,-7.5 3.4878,-3.72064 7.6304,-6.77631 11.9643,-9.46429 2.8337,-1.7575 5.777,-3.37496 8.9285,-4.46428 4.9573,-1.71349 10.3111,-2.07078 15.5357,-1.60715 3.2181,0.28557 6.421,0.87987 9.4643,1.96429 3.915,1.39507 7.5216,3.58912 10.7143,6.25 4.1167,3.43088 7.5372,7.60755 10.8929,11.78571 1.0094,1.25684 2.0206,2.52186 3.2071,3.61313 1.1865,1.09127 2.5657,2.01065 4.1143,2.4583 1.8816,0.5439 3.9661,0.34735 5.7143,-0.53571 1.3773,-0.69569 2.5512,-1.821 3.2143,-3.21429 0.5518,-1.15945 0.7401,-2.46621 0.7143,-3.75 z"
             style="fill:#408dca;fill-opacity:1;fill-rule:evenodd;stroke:none;stroke-width:1px;stroke-linecap:butt;stroke-linejoin:miter;stroke-opacity:1" />
          <path
             sodipodi:nodetypes="zzzzzzzzzzzzzzzzzzzzzzzzzzzzzzzzzz"
             inkscape:path-effect="#path-effect7085"
             inkscape:original-d="m 1626.5109,596.68465 c 1.3609,2.02339 1.5435,7.78202 3.7881,11.11167 2.2445,3.32965 6.3631,6.671 9.3439,8.08122 2.9808,1.41022 5.0012,1.45263 7.3236,1.26269 2.3223,-0.18994 4.5093,-1.11508 6.1872,-2.14657 1.6779,-1.03149 2.9635,-2.04379 4.413,-3.39394 1.4495,-1.35015 2.7637,-3.19003 4.2995,-4.68728 1.5359,-1.49725 2.2553,-3.33726 4.2932,-4.54569 2.0379,-1.20843 5.5888,-1.91903 7.7024,-2.0203 2.1136,-0.10127 3.5459,0.18123 4.6719,0.75761 1.1261,0.57638 2.0129,1.02947 2.4668,1.84174 0.4539,0.81227 1.0407,1.33207 1.2563,2.38379 0.2157,1.05172 0.018,2.65607 -0.3061,4.15287 -0.3243,1.4968 -0.5849,2.47733 -1.3966,4.24851 -0.8118,1.77118 -2.564,4.36244 -3.9144,6.06091 -1.3504,1.69847 -2.2574,2.62012 -3.9513,4.07759 -1.6939,1.45747 -3.8563,3.43494 -5.9608,4.88752 -2.1046,1.45258 -4.5941,2.89757 -6.7554,3.91434 -2.1613,1.01677 -3.9974,1.78255 -6.3135,2.34047 -2.316,0.55792 -5.0254,0.96719 -7.5761,0.94253 -2.5507,-0.0247 -5.2055,-0.73041 -7.4499,-1.51523 -2.2444,-0.78482 -4.0377,-1.91203 -5.9346,-3.03046 -1.897,-1.11843 -3.6743,-2.33409 -5.4296,-3.6618 -1.7553,-1.32771 -3.4002,-2.54518 -5.0832,-4.29738 -1.683,-1.7522 -3.3783,-3.87294 -4.8661,-6.25 -1.4877,-2.37706 -3.1524,-5.48922 -3.9285,-7.99107 -0.7761,-2.50185 -0.965,-5.23849 -0.9822,-6.74107 -0.017,-1.50258 0.067,-1.31592 0.2679,-2.1875 0.2006,-0.87158 0.5282,-2.10936 1.0268,-2.99107 0.4986,-0.88171 1.1462,-1.69388 1.875,-2.23215 0.7287,-0.53827 1.3216,-0.71533 2.3214,-0.98214 0.9998,-0.26681 2.5564,-0.59964 3.6607,-0.44643 1.1043,0.15321 1.9338,0.28513 2.7679,0.80358 0.8341,0.51845 0.8218,0.22965 2.1827,2.25304 z"
             inkscape:connector-curvature="0"
             id="path7083"
             d="m 1626.5109,596.68465 c 1.0434,1.66341 1.5838,3.5869 2.0547,5.49317 0.471,1.90627 0.8921,3.84426 1.7334,5.6185 1.8066,3.81007 5.4249,6.52501 9.3439,8.08122 2.3239,0.92279 4.8338,1.49272 7.3236,1.26269 2.1919,-0.2025 4.2962,-1.01995 6.1872,-2.14657 1.5973,-0.95164 3.056,-2.12283 4.413,-3.39394 1.5486,-1.45062 2.9695,-3.03388 4.2995,-4.68728 1.3116,-1.63049 2.5681,-3.36135 4.2932,-4.54569 2.2209,-1.52473 5.0086,-1.99005 7.7024,-2.0203 1.5901,-0.0179 3.2192,0.11098 4.6719,0.75761 0.9452,0.42073 1.794,1.05573 2.4668,1.84174 0.5896,0.68884 1.0476,1.50139 1.2563,2.38379 0.3227,1.36441 0.037,2.79357 -0.3061,4.15287 -0.3657,1.44692 -0.799,2.88094 -1.3966,4.24851 -0.9664,2.21175 -2.3512,4.22181 -3.9144,6.06091 -1.2265,1.44294 -2.5653,2.78716 -3.9513,4.07759 -1.8821,1.75227 -3.8562,3.41 -5.9608,4.88752 -2.1327,1.49721 -4.3967,2.80694 -6.7554,3.91434 -2.0344,0.95511 -4.1421,1.76078 -6.3135,2.34047 -2.4676,0.65875 -5.0234,1.02415 -7.5761,0.94253 -2.5445,-0.0814 -5.0711,-0.6083 -7.4499,-1.51523 -2.0785,-0.79243 -4.0375,-1.86898 -5.9346,-3.03046 -1.8624,-1.14021 -3.6723,-2.36559 -5.4296,-3.6618 -1.7875,-1.31843 -3.5253,-2.71429 -5.0832,-4.29738 -1.8553,-1.88532 -3.4409,-4.02167 -4.8661,-6.25 -1.6038,-2.50751 -3.019,-5.15687 -3.9285,-7.99107 -0.6976,-2.17385 -1.0929,-4.46072 -0.9822,-6.74107 0.036,-0.73443 0.1236,-1.46651 0.2679,-2.1875 0.2077,-1.03719 0.5341,-2.05507 1.0268,-2.99107 0.4571,-0.86824 1.0683,-1.67357 1.875,-2.23215 0.6942,-0.48071 1.5062,-0.76192 2.3214,-0.98214 1.1921,-0.32206 2.4284,-0.52653 3.6607,-0.44643 0.9677,0.0629 1.9349,0.30707 2.7679,0.80358 0.9067,0.54043 1.6218,1.35886 2.1827,2.25304 z"
             style="fill:#408dca;fill-opacity:1;fill-rule:evenodd;stroke:none;stroke-width:1px;stroke-linecap:butt;stroke-linejoin:miter;stroke-opacity:1" />
        </g>
      </g>
    </g>
  </g>
</svg>
